<?xml version="1.0" standalone="no"?>
<!DOCTYPE svg PUBLIC "-//W3C//DTD SVG 20010904//EN"
 "http://www.w3.org/TR/2001/REC-SVG-20010904/DTD/svg10.dtd">
<svg version="1.0" xmlns="http://www.w3.org/2000/svg"
 width="1008.000000pt" height="1280.000000pt" viewBox="0 0 1008.000000 1280.000000"
 preserveAspectRatio="xMidYMid meet">
<metadata>
Created by potrace 1.15, written by Peter Selinger 2001-2017
</metadata>
<g transform="translate(0.000000,1280.000000) scale(0.100000,-0.100000)"
fill="#000000" stroke="none">
<path d="M7615 12761 c-265 -125 -671 -394 -975 -646 -332 -275 -715 -655
-898 -890 l-23 -29 -52 29 c-110 61 -366 221 -462 288 -146 103 -240 181 -326
269 l-77 78 -12 -83 c-73 -506 -312 -931 -657 -1165 -153 -104 -259 -142 -728
-262 -366 -94 -546 -144 -705 -198 -553 -188 -849 -419 -959 -748 -17 -49 -33
-119 -37 -155 l-7 -67 -112 -76 c-328 -223 -547 -504 -605 -776 -11 -54 -13
-56 -98 -118 -300 -215 -527 -497 -617 -765 -28 -84 -55 -242 -55 -325 0 -45
-6 -61 -40 -111 -56 -82 -114 -211 -141 -311 -32 -117 -32 -319 -1 -433 56
-206 169 -392 364 -602 61 -65 67 -76 93 -165 106 -370 200 -850 330 -1680
174 -1118 260 -1588 375 -2055 151 -610 290 -900 552 -1151 375 -357 934 -523
2013 -596 360 -24 1982 -11 2645 22 750 38 1174 100 1490 217 481 179 752 514
939 1158 61 212 259 1416 416 2530 112 803 176 1215 252 1618 20 107 29 140
44 147 27 15 202 211 271 304 339 456 354 899 42 1284 -41 50 -74 97 -74 104
0 7 -9 41 -19 74 -95 302 -359 597 -748 836 -49 30 -83 57 -83 67 0 9 -13 53
-29 98 -104 299 -400 573 -874 808 l-190 95 -24 92 c-49 196 -176 401 -373
598 -266 269 -620 507 -1405 945 -126 70 -235 133 -242 139 -9 8 13 42 88 136
328 412 783 819 1314 1176 148 100 239 144 294 144 45 0 175 36 231 65 44 22
50 29 45 48 -9 31 -40 72 -56 74 -8 1 -50 -15 -94 -36z"/>
</g>
</svg>
